<svg xmlns="http://www.w3.org/2000/svg" viewBox="0 0 1600 800"><path fill="#df4e76" d="M0 0h1600v800H0z"/><path fill="#e15a72" d="M486 706c-109-22-223-32-335-20-51 6-102 17-151 34v80h844c-116-33-231-68-348-92l-10-2z"/><path fill="#e3656d" d="M1600 0H0v720c49-17 100-28 151-34 112-12 226-2 335 20l10 2c117 24 232 59 348 92h756V0z"/><path fill="#e56f68" d="M478 581l10 3c196 52 389 133 593 176 175 37 350 29 519-10V0H0v575c52-18 107-28 161-31 107-7 215 10 317 37z"/><path fill="#e77963" d="M0 0v429c56-18 114-27 171-27 103-1 204 22 300 54l9 3c183 62 365 146 562 192 187 44 376 35 558-12V0H0z"/><path fill="#e9835e" d="M182 259c98 6 192 36 281 72l8 4c171 71 343 158 532 208 199 51 403 40 597-15V0H0v283c59-19 121-27 182-24z"/><path fill="#eb8e5a" d="M1600 0H0v136c62-21 128-27 192-19 94 12 181 48 264 90l7 4c159 81 320 171 501 223 210 61 430 49 636-17V0z"/><path fill="#ee9956" d="M455 86c146 91 297 183 469 239a1041 1041 0 00676-18V0H288c56 21 109 51 160 82l7 4z"/><path fill="#f0a351" d="M1600 0H498c118 86 244 165 387 216a985 985 0 00715-20V0z"/><path fill="#f1ae4b" d="M1398 155a861 861 0 00202-73V0H643c63 42 130 78 202 107 175 71 369 89 553 48z"/><path fill="#f3b845" d="M1315 72c76-12 149-37 217-72H809a887 887 0 00506 72z"/></svg>